HIERARCHY
ROOT Hips
{
	OFFSET 0.000000 83.214638 0.000000
	CHANNELS 6 Xposition Yposition Zposition Xrotation Yrotation Zrotation
	JOINT Pelvis
	{
		OFFSET 0.000000 0.000000 0.000000
		CHANNELS 3 Xrotation Yrotation Zrotation
		JOINT LeftUpLeg
		{
			OFFSET 8.479700 -4.795502 -0.379100
			CHANNELS 3 Xrotation Yrotation Zrotation
			JOINT LeftLeg
			{
				OFFSET 0.024144 -32.555107 0.112900
				CHANNELS 3 Xrotation Yrotation Zrotation
				JOINT LeftFoot
				{
					OFFSET -0.024144 -32.638630 -3.012600
					CHANNELS 3 Xrotation Yrotation Zrotation
					JOINT LeftToeBase
					{
						OFFSET 0.970200 -13.225400 11.864200
						CHANNELS 3 Xrotation Yrotation Zrotation
						End Site
						{
							OFFSET 0.000000 12.319262 0.000000
						}
					}
					JOINT LFootTongue
					{
						OFFSET 1.142400 -1.059800 6.665200
						CHANNELS 3 Xrotation Yrotation Zrotation
						End Site
						{
							OFFSET 0.000000 12.319262 0.000000
						}
					}
				}
				JOINT LeftPantLeg
				{
					OFFSET 0.918482 -16.533964 -2.284700
					CHANNELS 3 Xrotation Yrotation Zrotation
					End Site
					{
						OFFSET 0.350399 24.744368 0.000000
					}
				}
			}
		}
		JOINT RightUpLeg
		{
			OFFSET -8.479700 -4.795502 -0.379100
			CHANNELS 3 Xrotation Yrotation Zrotation
			JOINT RightLeg
			{
				OFFSET -0.023144 -32.555092 0.112900
				CHANNELS 3 Xrotation Yrotation Zrotation
				JOINT RightFoot
				{
					OFFSET 0.023144 -32.638641 -3.012700
					CHANNELS 3 Xrotation Yrotation Zrotation
					JOINT RightToeBase
					{
						OFFSET -0.970200 -13.225400 11.864200
						CHANNELS 3 Xrotation Yrotation Zrotation
						End Site
						{
							OFFSET 0.000000 12.319244 0.000000
						}
					}
					JOINT RFootTongue
					{
						OFFSET -1.142200 -1.059800 6.665200
						CHANNELS 3 Xrotation Yrotation Zrotation
						End Site
						{
							OFFSET 0.000000 12.319243 0.000000
						}
					}
				}
				JOINT RightPantLeg
				{
					OFFSET -0.919482 -16.533978 -2.284800
					CHANNELS 3 Xrotation Yrotation Zrotation
					End Site
					{
						OFFSET -0.350400 24.744419 0.000000
					}
				}
			}
		}
	}
	JOINT Spine
	{
		OFFSET 0.000000 7.722000 1.166200
		CHANNELS 3 Xrotation Yrotation Zrotation
		JOINT Spine1
		{
			OFFSET 0.000000 12.024101 0.248800
			CHANNELS 3 Xrotation Yrotation Zrotation
			JOINT Spine2
			{
				OFFSET 0.000000 11.502998 -0.491200
				CHANNELS 3 Xrotation Yrotation Zrotation
				JOINT Neck
				{
					OFFSET 0.000000 18.430702 -3.123100
					CHANNELS 3 Xrotation Yrotation Zrotation
					JOINT Head
					{
						OFFSET 0.000000 9.051102 1.034000
						CHANNELS 3 Xrotation Yrotation Zrotation
						JOINT HairB
						{
							OFFSET 0.208400 24.786102 24.822300
							CHANNELS 3 Xrotation Yrotation Zrotation
							End Site
							{
								OFFSET 0.000000 32.263779 0.000000
							}
						}
						JOINT HairA
						{
							OFFSET -7.081100 24.428299 23.196600
							CHANNELS 3 Xrotation Yrotation Zrotation
							End Site
							{
								OFFSET 0.000000 32.263779 0.000000
							}
						}
						JOINT Hat
						{
							OFFSET 16.728800 15.048294 -15.439601
							CHANNELS 3 Xrotation Yrotation Zrotation
							End Site
							{
								OFFSET 0.000000 32.263779 0.000000
							}
						}
					}
				}
				JOINT LeftShoulder
				{
					OFFSET 6.197800 13.665199 -4.064700
					CHANNELS 3 Xrotation Yrotation Zrotation
					JOINT LeftArm
					{
						OFFSET 7.778100 -0.187103 -1.709300
						CHANNELS 3 Xrotation Yrotation Zrotation
						JOINT LeftForeArm
						{
							OFFSET 22.049376 0.000000 0.000000
							CHANNELS 3 Xrotation Yrotation Zrotation
							JOINT LeftHand
							{
								OFFSET 23.009392 0.000000 0.000000
								CHANNELS 3 Xrotation Yrotation Zrotation
								JOINT LeftHandThumb1
								{
									OFFSET 3.507191 -2.063065 3.133727
									CHANNELS 3 Xrotation Yrotation Zrotation
									JOINT LeftHandThumb2
									{
										OFFSET 3.101337 -1.790558 1.790558
										CHANNELS 3 Xrotation Yrotation Zrotation
										JOINT LeftHandThumb3
										{
											OFFSET 3.058640 -1.765907 1.765906
											CHANNELS 3 Xrotation Yrotation Zrotation
											End Site
											{
												OFFSET -0.415260 3.926476 -0.049563
											}
										}
									}
								}
								JOINT LeftHandIndex1
								{
									OFFSET 11.334419 -0.901459 3.706815
									CHANNELS 3 Xrotation Yrotation Zrotation
									JOINT LeftHandIndex2
									{
										OFFSET 3.283112 0.000000 0.000000
										CHANNELS 3 Xrotation Yrotation Zrotation
										JOINT LeftHandIndex3
										{
											OFFSET 3.323853 0.000000 0.000000
											CHANNELS 3 Xrotation Yrotation Zrotation
											End Site
											{
												OFFSET -1.135597 3.097809 0.402452
											}
										}
									}
								}
								JOINT LeftHandMiddle1
								{
									OFFSET 11.335861 0.000000 0.000000
									CHANNELS 3 Xrotation Yrotation Zrotation
									JOINT LeftHandMiddle2
									{
										OFFSET 3.410492 0.000000 0.000000
										CHANNELS 3 Xrotation Yrotation Zrotation
										JOINT LeftHandMiddle3
										{
											OFFSET 3.312172 0.000000 0.000000
											CHANNELS 3 Xrotation Yrotation Zrotation
											End Site
											{
												OFFSET -1.150200 3.080154 0.400270
											}
										}
									}
								}
								JOINT LeftHandRing1
								{
									OFFSET 11.514786 -0.013176 -3.003090
									CHANNELS 3 Xrotation Yrotation Zrotation
									JOINT LeftHandRing2
									{
										OFFSET 3.053307 0.000000 0.000000
										CHANNELS 3 Xrotation Yrotation Zrotation
										JOINT LeftHandRing3
										{
											OFFSET 3.295807 0.000000 0.000000
											CHANNELS 3 Xrotation Yrotation Zrotation
											End Site
											{
												OFFSET -1.281006 3.013344 0.375733
											}
										}
									}
								}
								JOINT LeftHandPinky1
								{
									OFFSET 10.518692 -0.960396 -5.730441
									CHANNELS 3 Xrotation Yrotation Zrotation
									JOINT LeftHandPinky2
									{
										OFFSET 2.861649 0.000000 0.000000
										CHANNELS 3 Xrotation Yrotation Zrotation
										JOINT LeftHandPinky3
										{
											OFFSET 2.863380 0.000000 0.000000
											CHANNELS 3 Xrotation Yrotation Zrotation
											End Site
											{
												OFFSET -0.843597 2.711159 0.369971
											}
										}
									}
								}
							}
							JOINT LSleeve
							{
								OFFSET 6.676277 -0.344902 -1.011730
								CHANNELS 3 Xrotation Yrotation Zrotation
								End Site
								{
									OFFSET 0.000000 14.885353 0.000000
								}
							}
						}
					}
				}
				JOINT RightShoulder
				{
					OFFSET -6.197800 13.665199 -4.064700
					CHANNELS 3 Xrotation Yrotation Zrotation
					JOINT RightArm
					{
						OFFSET -7.778100 -0.187103 -1.709300
						CHANNELS 3 Xrotation Yrotation Zrotation
						JOINT RightForeArm
						{
							OFFSET -22.049376 0.000000 0.000000
							CHANNELS 3 Xrotation Yrotation Zrotation
							JOINT RightHand
							{
								OFFSET -23.009392 0.000000 0.000000
								CHANNELS 3 Xrotation Yrotation Zrotation
								JOINT RightHandThumb1
								{
									OFFSET -3.507191 -2.063065 3.133727
									CHANNELS 3 Xrotation Yrotation Zrotation
									JOINT RightHandThumb2
									{
										OFFSET -3.101337 -1.790558 1.790558
										CHANNELS 3 Xrotation Yrotation Zrotation
										JOINT RightHandThumb3
										{
											OFFSET -3.058640 -1.765907 1.765906
											CHANNELS 3 Xrotation Yrotation Zrotation
											End Site
											{
												OFFSET 0.415260 3.926476 -0.049563
											}
										}
									}
								}
								JOINT RightHandIndex1
								{
									OFFSET -11.334419 -0.901459 3.706815
									CHANNELS 3 Xrotation Yrotation Zrotation
									JOINT RightHandIndex2
									{
										OFFSET -3.283112 0.000000 0.000000
										CHANNELS 3 Xrotation Yrotation Zrotation
										JOINT RightHandIndex3
										{
											OFFSET -3.323853 0.000000 0.000000
											CHANNELS 3 Xrotation Yrotation Zrotation
											End Site
											{
												OFFSET 1.135597 3.097809 0.402452
											}
										}
									}
								}
								JOINT RightHandMiddle1
								{
									OFFSET -11.335861 0.000000 0.000000
									CHANNELS 3 Xrotation Yrotation Zrotation
									JOINT RightHandMiddle2
									{
										OFFSET -3.410492 0.000000 0.000000
										CHANNELS 3 Xrotation Yrotation Zrotation
										JOINT RightHandMiddle3
										{
											OFFSET -3.312172 0.000000 0.000000
											CHANNELS 3 Xrotation Yrotation Zrotation
											End Site
											{
												OFFSET 1.150200 3.080154 0.400270
											}
										}
									}
								}
								JOINT RightHandRing1
								{
									OFFSET -11.514786 -0.013176 -3.003090
									CHANNELS 3 Xrotation Yrotation Zrotation
									JOINT RightHandRing2
									{
										OFFSET -3.053307 0.000000 0.000000
										CHANNELS 3 Xrotation Yrotation Zrotation
										JOINT RightHandRing3
										{
											OFFSET -3.295807 0.000000 0.000000
											CHANNELS 3 Xrotation Yrotation Zrotation
											End Site
											{
												OFFSET 1.281006 3.013344 0.375733
											}
										}
									}
								}
								JOINT RightHandPinky1
								{
									OFFSET -10.518692 -0.960396 -5.730441
									CHANNELS 3 Xrotation Yrotation Zrotation
									JOINT RightHandPinky2
									{
										OFFSET -2.861649 0.000000 0.000000
										CHANNELS 3 Xrotation Yrotation Zrotation
										JOINT RightHandPinky3
										{
											OFFSET -2.863380 0.000000 0.000000
											CHANNELS 3 Xrotation Yrotation Zrotation
											End Site
											{
												OFFSET 0.843597 2.711159 0.369971
											}
										}
									}
								}
							}
							JOINT RSleeve
							{
								OFFSET -6.676277 -0.344902 -1.011730
								CHANNELS 3 Xrotation Yrotation Zrotation
								End Site
								{
									OFFSET 0.000000 14.885353 0.000000
								}
							}
						}
					}
				}
				JOINT Backpack
				{
					OFFSET 0.000000 -2.471497 36.677502
					CHANNELS 3 Xrotation Yrotation Zrotation
					End Site
					{
						OFFSET 0.000000 20.427315 0.000000
					}
				}
				JOINT Hood
				{
					OFFSET 0.000000 18.754097 -10.431000
					CHANNELS 3 Xrotation Yrotation Zrotation
					JOINT Hood1
					{
						OFFSET 0.000000 -5.011002 -7.685901
						CHANNELS 3 Xrotation Yrotation Zrotation
						End Site
						{
							OFFSET 0.000000 9.175140 0.000000
						}
					}
				}
				JOINT LHoodieString
				{
					OFFSET 5.250500 16.397697 3.089900
					CHANNELS 3 Xrotation Yrotation Zrotation
					JOINT LHoodieString1
					{
						OFFSET 0.257700 -6.364304 3.694600
						CHANNELS 3 Xrotation Yrotation Zrotation
						JOINT LHoodieString2
						{
							OFFSET 0.000000 -9.643799 2.679100
							CHANNELS 3 Xrotation Yrotation Zrotation
							End Site
							{
								OFFSET 0.000000 10.009018 0.000000
							}
						}
					}
				}
				JOINT RHoodieString
				{
					OFFSET -5.250500 16.397697 3.089900
					CHANNELS 3 Xrotation Yrotation Zrotation
					JOINT RHoodieString1
					{
						OFFSET -0.257700 -6.364304 3.694600
						CHANNELS 3 Xrotation Yrotation Zrotation
						JOINT RHoodieString2
						{
							OFFSET 0.000000 -9.643799 2.679100
							CHANNELS 3 Xrotation Yrotation Zrotation
							End Site
							{
								OFFSET 0.000000 10.009018 0.000000
							}
						}
					}
				}
			}
			JOINT LBackpack_Strap
			{
				OFFSET 15.223200 -7.719803 -6.610900
				CHANNELS 3 Xrotation Yrotation Zrotation
				End Site
				{
					OFFSET 0.000000 16.040596 0.000000
				}
			}
			JOINT RBackpack_Strap
			{
				OFFSET -15.223000 -7.719803 -6.610900
				CHANNELS 3 Xrotation Yrotation Zrotation
				End Site
				{
					OFFSET 0.000000 16.040596 0.000000
				}
			}
		}
	}
	JOINT BoyFacialAnim_Joint
	{
		OFFSET 1.000000 -82.208099 -1.550900
		CHANNELS 3 Xrotation Yrotation Zrotation
		End Site
		{
			OFFSET 0.000000 30.012791 0.000000
		}
	}
}
MOTION
Frames: 4
Frame Time: 0.016667
-5.943483 79.623672 376.778137 178.422054 18.427123 -175.625597 -0.000000 -0.000001 -0.000000 -6.832680 3.655651 -13.572691 24.285713 2.046623 1.970957 -18.861726 -0.123854 0.168494 0.000000 0.000000 -0.000001 0.000000 0.000000 -0.000001 -0.000001 0.000003 0.000000 -8.681268 -10.742895 -15.486141 52.273446 -10.070735 -1.493477 21.967487 -5.823590 27.239518 0.000000 -0.000001 -0.000000 0.000000 -0.000001 -0.000000 0.000001 -0.000002 0.000001 -8.264352 8.714775 -2.937151 2.885765 0.867786 -2.840125 2.918911 0.925578 -2.789146 -2.267353 -1.126766 -1.980806 5.163784 9.476490 4.286313 0.000000 -0.000000 0.000000 0.000000 -0.000000 0.000000 0.000000 -0.000000 0.000000 2.179067 -9.179412 -8.047976 14.406942 29.963968 -77.628604 0.000002 -34.684452 0.000006 14.422658 3.046601 -0.816626 -6.684712 7.621258 19.674619 12.443699 25.448703 -7.963767 0.000000 0.000001 0.000002 -0.599927 -1.191955 -15.838722 0.763103 3.155591 -27.183122 -0.000002 -0.000001 -0.000000 -0.513518 -1.737475 -12.002741 0.474082 2.515168 -21.345306 0.000001 0.000001 -0.000003 0.001056 0.779664 -12.836425 0.906742 3.420413 -29.687103 -0.000002 0.000002 -0.000000 2.100243 10.721549 -11.319408 0.694475 -1.057921 -26.220968 0.000001 0.000001 -0.000000 0.000000 -0.000001 -0.000000 1.176339 8.510090 2.447320 54.046638 33.855875 65.975680 0.000012 63.444043 -0.000006 52.855555 43.637201 -78.072587 2.028307 4.773714 9.571606 4.642476 -8.639172 -0.222133 -0.000002 0.000001 0.000001 8.333989 12.771186 -38.552644 0.273802 -1.935658 16.100455 -0.000001 -0.000002 0.000005 3.496440 8.099780 -28.749352 0.565364 -2.751020 23.221798 -0.000004 0.000000 -0.000000 1.427748 5.041224 -20.610594 0.144917 -1.414972 11.694203 0.000000 -0.000000 0.000002 -3.351269 -9.486527 -18.455429 0.124453 -1.312293 10.834511 -0.000000 0.000000 0.000000 -0.000000 -0.000001 -0.000000 -0.000000 -0.000000 -0.000000 -0.000000 -0.000000 -0.000000 -0.000000 -0.000000 -0.000000 -0.000000 -0.000000 -0.000000 -0.000000 -0.000000 -0.000000 0.000000 -0.000000 -0.000000 -0.000000 -0.000000 -0.000000 -0.000000 -0.000000 -0.000000 0.000000 -0.000000 -0.000000 -0.000000 0.000000 0.000000 -0.000000 0.000000 0.000000 -0.000000 -0.000001 -0.000000 
-6.095070 79.279587 376.349945 178.539273 17.913614 -175.252901 -0.000000 -0.000001 -0.000000 -6.989155 3.934916 -14.036082 25.775558 1.377477 1.776016 -19.929841 -0.157384 0.184861 -0.000000 -0.000000 -0.000000 -0.000000 -0.000000 0.000000 -0.000003 -0.000000 -0.000000 -12.253174 -9.505446 -17.193053 57.929717 -10.149686 -1.803244 22.739795 -4.229018 27.287929 0.000001 -0.000001 0.000000 0.000001 -0.000001 0.000000 -0.000000 -0.000000 0.000002 -8.048005 8.380082 -2.712551 2.875275 0.818132 -2.931603 2.908800 0.873099 -2.883819 -2.130121 -0.781070 -2.167743 5.293200 11.076065 3.964217 0.000000 0.000000 0.000000 0.000000 0.000000 0.000000 0.000000 0.000000 0.000000 2.350522 -9.842291 -8.206664 12.252318 28.921302 -76.587184 -0.000002 -33.323940 0.000004 15.503479 3.149334 -1.500113 -6.700410 7.648503 20.154638 12.316259 25.187815 -7.880614 0.000000 0.000001 0.000002 -0.634964 -1.349607 -15.696712 0.763059 3.155495 -27.182251 -0.000001 0.000000 -0.000002 -0.502561 -1.793117 -11.613236 0.485397 2.543914 -21.601790 0.000001 0.000000 -0.000002 -0.009628 0.728890 -12.781704 0.923274 3.449208 -29.963114 0.000001 0.000001 -0.000004 1.964102 10.449547 -10.849549 0.730368 -0.986118 -26.885465 0.000000 0.000001 -0.000000 0.000000 -0.000001 -0.000001 1.147073 8.186079 2.395671 53.514129 32.226089 67.039960 0.000029 64.113599 -0.000062 51.483852 43.898401 -75.395788 1.630048 4.544524 9.876821 4.619481 -8.628178 -0.234481 -0.000003 0.000001 -0.000000 8.024297 12.463479 -38.292759 0.272152 -1.929966 16.051742 -0.000002 -0.000000 0.000002 3.286620 7.766334 -28.519704 0.563628 -2.747006 23.185632 -0.000000 -0.000001 -0.000000 1.292500 4.713901 -20.382811 0.143438 -1.407904 11.634666 0.000002 0.000001 0.000001 -3.406013 -9.828181 -18.246079 0.124790 -1.314083 10.849492 -0.000002 -0.000000 0.000000 -0.000001 0.000000 -0.000000 -0.000000 0.000000 -0.000000 -0.000000 0.000000 -0.000000 -0.000000 0.000000 -0.000000 -0.000000 0.000000 -0.000000 -0.000000 0.000000 -0.000001 -0.000000 0.000000 -0.000001 -0.000000 0.000000 -0.000000 -0.000000 0.000000 -0.000001 -0.000000 0.000000 -0.000001 -0.000000 0.000000 -0.000000 -0.000000 0.000000 -0.000000 -0.000000 -0.000001 -0.000000 
-6.217960 78.876266 375.992798 178.669539 17.567486 -174.814061 -0.000000 -0.000001 -0.000000 -7.310385 4.156070 -14.626153 27.480525 0.962555 1.663076 -21.064807 -0.185669 0.218268 0.000000 0.000001 -0.000001 0.000000 0.000001 -0.000000 0.000002 -0.000001 -0.000000 -16.185580 -7.666504 -18.586671 64.025271 -10.111213 -2.146129 24.122719 -2.994023 26.816803 -0.000000 -0.000001 0.000002 -0.000000 -0.000001 0.000002 0.000001 -0.000000 -0.000001 -7.609994 7.989376 -2.646684 2.875486 0.762740 -2.993523 2.908382 0.813677 -2.949340 -2.055260 -0.454483 -2.308380 5.231539 12.641306 3.684727 -0.000000 -0.000000 -0.000000 -0.000000 -0.000000 -0.000000 -0.000000 -0.000000 -0.000000 2.546452 -10.572193 -8.378388 9.922147 27.756098 -75.392004 -0.000005 -32.041893 -0.000002 16.831394 3.251078 -2.443231 -6.700554 7.737797 20.690861 12.203172 24.954400 -7.806906 -0.000001 0.000001 0.000000 -0.673813 -1.516357 -15.590031 0.762995 3.155373 -27.181168 -0.000001 -0.000001 -0.000002 -0.478429 -1.803005 -11.152387 0.496709 2.572272 -21.855234 -0.000000 -0.000000 -0.000002 -0.003890 0.744794 -12.628223 0.940803 3.479384 -30.253234 -0.000001 0.000003 -0.000003 1.821275 10.186819 -10.297972 0.772725 -0.903951 -27.650738 0.000000 0.000000 -0.000000 0.000000 -0.000001 0.000000 1.128168 7.962232 2.448087 52.967174 30.554943 67.976884 -0.000089 64.710838 0.000089 50.178593 44.005977 -72.730183 1.538522 4.517427 9.972492 4.594833 -8.614998 -0.248086 -0.000006 0.000001 0.000000 7.968350 12.398180 -38.277767 0.271529 -1.927785 16.033121 -0.000000 0.000002 0.000000 3.251013 7.703727 -28.510818 0.563237 -2.746088 23.177687 -0.000004 0.000002 0.000000 1.270426 4.657453 -20.365543 0.142502 -1.403319 11.596586 -0.000000 -0.000002 -0.000002 -3.420572 -9.891956 -18.227570 0.124317 -1.311620 10.828812 -0.000001 -0.000000 0.000000 -0.000003 0.000000 0.000001 -0.000000 0.000000 -0.000000 -0.000000 0.000000 -0.000000 -0.000000 0.000000 -0.000000 -0.000000 0.000000 -0.000000 -0.000000 0.000000 -0.000000 0.000000 -0.000001 -0.000000 -0.000000 0.000000 -0.000000 -0.000000 0.000000 -0.000000 0.000000 -0.000001 -0.000000 0.000000 -0.000000 -0.000000 0.000000 -0.000000 -0.000000 -0.000000 -0.000001 -0.000000 
-6.298335 78.405319 375.692596 178.879062 17.350291 -174.333571 -0.000000 -0.000001 0.000000 -7.668034 4.369620 -15.326446 29.342418 0.792929 1.598648 -22.267002 -0.243087 0.408357 -0.000000 -0.000000 -0.000001 -0.000000 -0.000000 -0.000000 0.000002 0.000002 0.000001 -20.289229 -5.240525 -19.510944 70.378297 -9.998106 -2.468306 26.200228 -1.855475 25.633311 -0.000000 -0.000000 0.000000 -0.000000 -0.000000 0.000000 0.000002 -0.000004 -0.000001 -6.893932 7.517010 -2.764035 2.893130 0.698838 -3.014760 2.924216 0.744275 -2.974637 -2.071822 -0.141753 -2.407373 4.963950 14.191075 3.450175 -0.000000 0.000000 -0.000000 -0.000000 0.000000 -0.000000 -0.000000 0.000000 -0.000000 2.756978 -11.327253 -8.553149 7.462148 26.390227 -74.021718 0.000011 -30.901569 0.000011 18.404095 3.328751 -3.716075 -6.679926 7.905294 21.241962 12.115552 24.772309 -7.749825 0.000000 0.000002 0.000000 -0.715152 -1.681678 -15.537898 0.762929 3.155237 -27.179874 -0.000001 0.000001 0.000000 -0.441811 -1.753595 -10.653328 0.508282 2.600898 -22.111583 0.000003 0.000001 0.000000 0.018857 0.833784 -12.381401 0.958583 3.509635 -30.544876 -0.000001 0.000002 -0.000002 1.680032 9.950118 -9.693203 0.819461 -0.816283 -28.473206 -0.000000 0.000001 -0.000002 0.000000 0.000002 0.000001 1.119225 7.836395 2.584076 52.387349 28.918850 68.720630 0.000031 65.210405 -0.000012 49.212794 43.993460 -70.307522 1.612545 4.590507 9.914290 4.591477 -8.611583 -0.250445 -0.000002 0.000002 0.000001 8.043916 12.469098 -38.358076 0.271739 -1.928489 16.039231 -0.000005 0.000001 0.000002 3.304426 7.786607 -28.584711 0.563703 -2.747164 23.187246 0.000002 0.000001 0.000002 1.306157 4.743799 -20.435253 0.142634 -1.403898 11.601419 -0.000000 0.000001 0.000000 -3.408476 -9.802927 -18.290294 0.124125 -1.310595 10.820393 -0.000000 -0.000003 -0.000000 0.000002 -0.000002 -0.000001 -0.000000 -0.000001 0.000000 -0.000000 -0.000001 0.000000 -0.000000 -0.000001 0.000000 -0.000000 -0.000001 0.000000 -0.000000 -0.000001 0.000000 -0.000000 0.000000 0.000000 -0.000000 -0.000001 0.000000 -0.000000 -0.000001 0.000000 -0.000000 0.000000 0.000000 -0.000000 -0.000001 -0.000000 -0.000000 -0.000001 -0.000000 -0.000000 -0.000001 0.000000 
